<?xml version="1.0" standalone="no"?><!DOCTYPE svg PUBLIC "-//W3C//DTD SVG 1.1//EN" "http://www.w3.org/Graphics/SVG/1.1/DTD/svg11.dtd"><svg t="1608795384638" class="icon" viewBox="0 0 1024 1024" version="1.1" xmlns="http://www.w3.org/2000/svg" p-id="4391" xmlns:xlink="http://www.w3.org/1999/xlink" width="200" height="200"><defs><style type="text/css"></style></defs><path d="M910.4384 130.7648c-9.8304-3.4816-19.6608 0-25.6 6.9632-43.3152 61.1328-102.4 117.0432-210.7392 62.8736-61.0304-29.696-102.4-20.992-129.9456-5.2224-29.5936 15.7696-49.2544 43.7248-55.1936 73.4208-110.2848 8.704-196.9152 90.9312-196.9152 192.2048v244.6336c0 106.5984 96.4608 192.2048 216.6784 192.2048 120.1152 0 216.6784-85.6064 216.6784-192.2048V461.1072c0-99.6352-84.6848-181.76-194.9696-190.464 3.8912-15.7696 15.7696-33.1776 35.4304-43.7248 27.5456-15.7696 47.3088-14.0288 90.624 6.9632 74.8544 33.1776 122.0608 24.4736 161.4848 12.1856 45.2608-15.7696 78.7456-48.9472 102.4-89.088 3.7888-10.4448-0.1024-20.8896-9.9328-26.2144zM678.8096 705.7408c0 87.3472-75.6736 157.2864-170.1888 157.2864-94.5152 0-170.1888-69.9392-170.1888-157.2864V513.536h340.2752v192.2048z m0-244.6336v17.5104H338.5344v-17.5104c0-80.384 66.1504-146.8416 151.2448-155.5456v173.056h37.7856v-173.056c85.0944 8.704 151.2448 75.1616 151.2448 155.5456z" p-id="4392"></path></svg>