<?xml version="1.0" encoding="utf-8"?>
<!-- Generator: Adobe Illustrator 21.0.0, SVG Export Plug-In . SVG Version: 6.00 Build 0)  -->
<svg version="1.1" id="图层_1" xmlns="http://www.w3.org/2000/svg" xmlns:xlink="http://www.w3.org/1999/xlink" x="0px" y="0px"
	 viewBox="0 0 1000 1000" style="enable-background:new 0 0 1000 1000;" xml:space="preserve">
<path d="M474.5,700.4V755c0,9.1,4.9,17.5,12.7,22.1c7.9,4.6,17.6,4.6,25.5,0c7.9-4.6,12.7-13,12.7-22.1v-54.6
	c49.7-12.8,82.2-60.6,75.7-111.6c-6.5-51-49.8-89.1-101.2-89.1c-51.4,0-94.7,38.2-101.2,89.1S424.8,687.5,474.5,700.4L474.5,700.4z
	 M500,551c20.6,0,39.2,12.4,47.1,31.5c7.9,19.1,3.5,41-11.1,55.6c-14.6,14.6-36.5,18.9-55.6,11.1c-19.1-7.9-31.5-26.5-31.5-47.1
	C449,573.8,471.8,551,500,551L500,551z M372.5,398h-51v-76.5c0-63.8,34-122.7,89.2-154.6c55.2-31.9,123.3-31.9,178.5,0
	c55.2,31.9,89.2,90.8,89.2,154.6c0,9.1,4.9,17.5,12.8,22.1c7.9,4.6,17.6,4.6,25.5,0c7.9-4.6,12.8-13,12.8-22.1
	C729.5,195,626.6,92,500,92C373.4,92,270.5,195,270.5,321.5V398h-51c-6.8,0-13.2,2.7-18,7.5c-4.8,4.8-7.5,11.3-7.5,18v207
	C194,789.3,355.5,908,500,908c144.5,0,306-118.7,306-277.5v-207c0-6.8-2.7-13.2-7.5-18c-4.8-4.8-11.3-7.5-18-7.5l0,0h-357
	 M755,630.5C755,760.1,620.4,857,500,857c-120.4,0-255-96.9-255-226.5V449h510V630.5z M755,630.5"/>
</svg>
