<?xml version="1.0" standalone="no"?><!DOCTYPE svg PUBLIC "-//W3C//DTD SVG 1.1//EN" "http://www.w3.org/Graphics/SVG/1.1/DTD/svg11.dtd"><svg t="1608795540964" class="icon" viewBox="0 0 1024 1024" version="1.1" xmlns="http://www.w3.org/2000/svg" p-id="5073" xmlns:xlink="http://www.w3.org/1999/xlink" width="200" height="200"><defs><style type="text/css"></style></defs><path d="M533.6064 851.7632V555.3152c0-27.0336-41.984-27.0336-41.984 0v296.448c0 27.0336 41.984 27.0336 41.984 0z m0 0" p-id="5074"></path><path d="M372.736 779.9808L496.9472 904.192c8.0896 8.0896 21.6064 8.0896 29.696 0l126.0544-126.0544c19.1488-19.1488-10.5472-48.8448-29.696-29.696-41.984 41.984-83.968 84.0704-126.0544 126.0544h29.696L402.432 750.3872c-19.1488-19.1488-48.8448 10.4448-29.696 29.5936z m3.072-123.1872c-62.5664 0-126.0544 7.68-175.104-39.7312-72.9088-70.4512-38.2976-194.3552 54.9888-225.28 9.728-3.1744 14.336-10.4448 15.36-20.1728 0.2048-1.8432 0.7168-4.9152-0.4096 3.1744 0.3072-1.8432 0.512-3.7888 0.9216-5.632 1.2288-7.2704 2.7648-14.4384 4.608-21.6064 5.4272-21.8112 13.312-42.9056 23.4496-62.8736 31.232-61.2352 84.6848-102.1952 152.2688-115.6096 76.0832-15.0528 167.5264 1.8432 225.3824 55.5008 34.6112 32.1536 55.296 76.288 64.3072 122.1632 2.3552 11.8784 2.4576 9.6256 2.8672 22.2208 0.3072 9.3184 6.144 17.8176 15.36 20.1728 90.8288 23.7568 131.7888 127.0784 81.92 206.6432-22.9376 36.6592-64.8192 58.4704-107.4176 60.8256-22.9376 1.2288-46.2848 0.1024-69.2224 0.1024-27.0336 0-27.0336 41.984 0 41.984 30.3104 0 62.0544 2.56 92.0576-2.4576 53.6576-8.9088 99.328-41.7792 126.464-88.6784 58.368-101.0688-2.8672-230.1952-112.64-258.8672l15.36 20.1728c-3.072-89.3952-59.2896-175.8208-138.9568-215.2448-75.1616-37.2736-174.592-42.2912-252.7232-11.5712-61.8496 24.3712-108.8512 73.5232-136.9088 133.12-14.2336 30.208-24.8832 63.0784-28.5696 96.4608l15.36-20.1728c-113.8688 37.6832-162.9184 176.0256-91.136 274.6368 32.3584 44.4416 82.944 69.632 137.3184 72.6016 28.2624 1.536 56.832 0.1024 85.0944 0.1024 27.0336-0.1024 27.0336-41.984 0-41.984z m0 0" p-id="5075"></path></svg>