<?xml version="1.0" standalone="no"?><!DOCTYPE svg PUBLIC "-//W3C//DTD SVG 1.1//EN" "http://www.w3.org/Graphics/SVG/1.1/DTD/svg11.dtd"><svg t="1608795571212" class="icon" viewBox="0 0 1024 1024" version="1.1" xmlns="http://www.w3.org/2000/svg" p-id="5209" xmlns:xlink="http://www.w3.org/1999/xlink" width="200" height="200"><defs><style type="text/css"></style></defs><path d="M246.6816 374.4768h-52.6336c-56.32 0-101.9904-45.6704-101.9904-101.9904v-123.904c0-56.2176 45.6704-101.9904 101.9904-101.9904h635.0848c56.32 0 101.9904 45.6704 101.9904 101.9904v114.0736c0 56.32-45.6704 101.9904-101.9904 101.9904h-96.3584v-52.6336h96.3584c27.2384 0 49.3568-22.1184 49.3568-49.3568V148.5824c0-27.2384-22.1184-49.3568-49.3568-49.3568H194.048c-27.2384 0-49.3568 22.1184-49.3568 49.3568v123.904c0 27.2384 22.1184 49.3568 49.3568 49.3568h52.6336v52.6336z m0 0" p-id="5210"></path><path d="M264.192 890.368c-3.072 0-6.0416-0.6144-9.1136-1.8432-10.4448-4.3008-17.2032-15.7696-17.2032-28.3648V214.528c0-16.7936 11.776-30.208 26.3168-30.208h495.0016c14.5408 0 26.3168 13.5168 26.3168 30.208v139.4688c0 16.7936-11.776 30.208-26.3168 30.208s-26.3168-13.5168-26.3168-30.208V244.8384h-442.368v533.1968l23.552-31.744c4.7104-6.5536 11.776-10.24 19.1488-10.5472 7.3728-0.3072 14.5408 2.9696 19.7632 9.1136l62.6688 74.0352 79.6672-73.9328c10.1376-9.4208 24.8832-8.8064 34.6112 1.536l67.2768 72.4992 73.5232-73.4208c10.8544-10.8544 27.2384-9.6256 36.864 2.6624l25.1904 32.4608V526.5408c0-16.7936 11.776-30.208 26.3168-30.208s26.3168 13.5168 26.3168 30.208V860.16c0 12.5952-6.7584 23.8592-16.9984 28.2624-10.24 4.4032-21.7088 1.2288-29.0816-8.0896l-53.9648-69.4272-71.8848 71.68c-10.1376 10.1376-25.3952 9.8304-35.328-0.7168l-67.8912-73.216-80.4864 74.752c-10.6496 9.8304-25.9072 8.8064-35.4304-2.4576l-59.1872-70.0416-51.2 68.9152c-4.8128 6.8608-12.1856 10.5472-19.7632 10.5472z m0 0" p-id="5211"></path><path d="M801.1776 235.008H222.0032c-14.5408 0-26.3168-11.776-26.3168-26.3168s11.776-26.3168 26.3168-26.3168h579.1744c14.5408 0 26.3168 11.776 26.3168 26.3168 0.1024 14.5408-11.6736 26.3168-26.3168 26.3168zM635.0848 388.4032h-246.784c-14.5408 0-26.3168-11.8784-26.3168-26.3168 0-14.5408 11.8784-26.3168 26.3168-26.3168h246.784c14.5408 0 26.3168 11.8784 26.3168 26.3168s-11.8784 26.3168-26.3168 26.3168zM635.0848 520.8064h-246.784c-14.5408 0-26.3168-11.8784-26.3168-26.3168 0-14.5408 11.8784-26.3168 26.3168-26.3168h246.784c14.5408 0 26.3168 11.8784 26.3168 26.3168s-11.8784 26.3168-26.3168 26.3168zM635.0848 653.1072h-246.784c-14.5408 0-26.3168-11.8784-26.3168-26.3168 0-14.5408 11.8784-26.3168 26.3168-26.3168h246.784c14.5408 0 26.3168 11.8784 26.3168 26.3168s-11.8784 26.3168-26.3168 26.3168z" p-id="5212"></path></svg>