<?xml version="1.0" standalone="no"?><!DOCTYPE svg PUBLIC "-//W3C//DTD SVG 1.1//EN" "http://www.w3.org/Graphics/SVG/1.1/DTD/svg11.dtd"><svg t="1608795462199" class="icon" viewBox="0 0 1024 1024" version="1.1" xmlns="http://www.w3.org/2000/svg" p-id="4800" xmlns:xlink="http://www.w3.org/1999/xlink" width="200" height="200"><defs><style type="text/css"></style></defs><path d="M434.7904 154.7264l-158.5152 57.1392c-47.0016 16.896-83.5584 69.5296-83.5584 120.1152v236.6464c0 134.5536 126.6688 235.6224 290.2016 305.7664 18.5344 7.9872 39.424 7.9872 57.9584 0 163.0208-69.7344 289.8944-171.008 289.8944-305.664V332.0832c0-50.3808-36.7616-103.2192-83.5584-120.1152l-158.5152-57.1392c-43.1104-15.7696-110.6944-15.7696-153.9072-0.1024z m139.9808 38.5024l158.5152 57.1392c30.5152 11.0592 56.5248 48.5376 56.5248 81.6128v236.7488c0 111.3088-116.736 204.4928-265.1136 267.9808-8.0896 3.584-17.408 3.584-25.4976 0.1024C350.4128 773.0176 233.7792 679.936 233.7792 568.7296V332.0832c0-33.4848 25.8048-70.5536 56.4224-81.6128l158.5152-57.2416c34.2016-12.3904 91.9552-12.3904 126.0544 0z m0 0" p-id="4801"></path><path d="M540.2624 545.8944v-60.6208h90.0096c15.0528 0 27.3408-11.776 27.3408-26.624-0.3072-14.848-12.4928-26.7264-27.3408-26.624h-78.7456l0.2048-0.2048 78.336-75.6736c5.12-4.9152 7.9872-11.6736 7.9872-18.7392s-2.8672-13.824-7.9872-18.7392c-10.8544-10.24-27.8528-10.24-38.8096 0L513.024 394.5472l-0.2048 0.1024-0.2048-0.1024-78.336-75.6736c-10.8544-10.3424-27.9552-10.3424-38.8096 0-5.12 4.9152-7.9872 11.6736-7.9872 18.7392s2.8672 13.824 7.9872 18.7392l78.4384 75.6736 0.2048 0.2048h-78.6432c-15.0528 0-27.3408 11.776-27.3408 26.624 0 14.6432 12.288 26.624 27.3408 26.624h90.112v60.6208h-90.112c-15.0528 0-27.3408 11.776-27.3408 26.624 0 14.6432 12.288 26.624 27.3408 26.624h90.112v76.1856c0 14.6432 12.288 26.624 27.3408 26.624s27.3408-11.776 27.3408-26.624V599.04h90.0096c15.0528 0 27.3408-11.776 27.3408-26.624-0.3072-14.848-12.4928-26.7264-27.3408-26.624l-90.0096 0.1024z m0 0" p-id="4802"></path></svg>