<?xml version="1.0" standalone="no"?><!DOCTYPE svg PUBLIC "-//W3C//DTD SVG 1.1//EN" "http://www.w3.org/Graphics/SVG/1.1/DTD/svg11.dtd"><svg t="1608795517701" class="icon" viewBox="0 0 1024 1024" version="1.1" xmlns="http://www.w3.org/2000/svg" p-id="4936" xmlns:xlink="http://www.w3.org/1999/xlink" width="200" height="200"><defs><style type="text/css"></style></defs><path d="M659.968 262.5536c0 6.144-2.4576 11.9808-6.7584 16.384-4.3008 4.3008-10.1376 6.7584-16.2816 6.7584H272.384c-12.5952-0.3072-22.6304-10.5472-22.6304-23.04 0-12.5952 10.0352-22.8352 22.6304-23.04h364.544c6.0416 0 11.9808 2.4576 16.1792 6.7584 4.4032 4.1984 6.8608 10.1376 6.8608 16.1792z" p-id="4937"></path><path d="M201.0112 889.6512c-34.816 0-63.0784-28.4672-63.0784-63.488V197.3248c0-35.0208 28.2624-63.488 63.0784-63.488h507.904c34.816 0 63.0784 28.4672 63.0784 63.488v260.7104c0 6.2464 5.0176 11.264 11.264 11.264h18.7392c6.2464 0 11.264-5.0176 11.264-11.264V197.3248c0-57.856-46.7968-104.96-104.3456-104.96h-507.904c-57.5488 0-104.3456 47.104-104.3456 104.96v628.9408c0 57.856 46.7968 104.96 104.3456 104.96h361.7792c6.7584 0 12.288-5.5296 12.288-12.288v-16.896c0-6.7584-5.5296-12.288-12.288-12.288H201.0112z" p-id="4938"></path><path d="M794.9312 666.5216H601.4976v-41.2672c0-7.2704-8.8064-10.9568-14.0288-5.8368l-58.7776 58.7776c-4.8128 4.8128-4.8128 12.5952 0 17.408l58.7776 58.7776c5.12 5.12 14.0288 1.536 14.0288-5.8368v-41.2672h192.3072c50.4832 0 92.3648 40.448 92.7744 90.9312 0.4096 50.8928-40.7552 92.3648-91.648 92.3648H613.7856c-6.7584 0-12.288 5.5296-12.288 12.288v16.1792c0 6.7584 5.5296 12.288 12.288 12.288h179.712c73.1136 0 133.5296-58.7776 133.8368-131.8912 0.2048-73.3184-59.0848-132.9152-132.4032-132.9152z m0 0M659.968 545.3824c0 6.144-2.4576 11.9808-6.7584 16.384-4.3008 4.3008-10.1376 6.7584-16.2816 6.7584H272.384c-12.5952-0.3072-22.6304-10.5472-22.6304-23.04 0-12.5952 10.0352-22.8352 22.6304-23.04h364.544c6.0416 0 11.9808 2.4576 16.1792 6.7584 4.4032 4.1984 6.8608 10.0352 6.8608 16.1792zM659.968 403.968c0 6.144-2.4576 11.9808-6.7584 16.384-4.3008 4.3008-10.1376 6.7584-16.2816 6.7584H272.384c-12.5952-0.3072-22.6304-10.5472-22.6304-23.04 0-12.5952 10.0352-22.8352 22.6304-23.04h364.544c6.0416 0 11.9808 2.4576 16.1792 6.7584 4.4032 4.1984 6.8608 10.0352 6.8608 16.1792zM458.752 709.8368H272.896c-12.6976 0-23.04-10.3424-23.04-23.04s10.3424-23.04 23.04-23.04H458.752c12.6976 0 23.04 10.3424 23.04 23.04 0 12.5952-10.3424 23.04-23.04 23.04z" p-id="4939"></path></svg>