<?xml version="1.0" standalone="no"?><!DOCTYPE svg PUBLIC "-//W3C//DTD SVG 1.1//EN" "http://www.w3.org/Graphics/SVG/1.1/DTD/svg11.dtd"><svg t="1608795608984" class="icon" viewBox="0 0 1024 1024" version="1.1" xmlns="http://www.w3.org/2000/svg" p-id="5346" xmlns:xlink="http://www.w3.org/1999/xlink" width="200" height="200"><defs><style type="text/css"></style></defs><path d="M716.9024 262.5536c0 6.144-2.4576 11.9808-6.7584 16.384-4.3008 4.3008-10.1376 6.7584-16.2816 6.7584h-364.544c-12.5952-0.3072-22.6304-10.5472-22.6304-23.04 0-12.5952 10.0352-22.8352 22.6304-23.04h364.544c6.0416 0 11.9808 2.4576 16.1792 6.7584 4.4032 4.1984 6.8608 10.1376 6.8608 16.1792z m-51.5072 136.2944c0 6.144-2.3552 11.9808-6.7584 16.384-4.3008 4.3008-10.1376 6.7584-16.2816 6.7584H357.888c-12.5952-0.3072-22.6304-10.5472-22.6304-23.04 0-12.5952 10.0352-22.8352 22.6304-23.04h284.5696c12.6976-0.1024 22.8352 10.24 22.9376 22.9376z m-57.856 118.0672c0.1024 5.7344-1.2288 11.3664-3.8912 16.384-2.4576 4.3008-5.9392 6.7584-9.4208 6.7584H429.056c-7.3728 0-13.312-10.3424-13.312-23.04 0-12.8 5.9392-23.04 13.312-23.04h165.1712c7.3728 0 13.312 10.3424 13.312 22.9376z m91.136 314.9824h-0.3072c-5.4272-0.1024-10.6496-2.3552-14.4384-6.3488l-86.4256-92.7744c-7.5776-8.192-7.168-20.8896 0.9216-28.5696 3.8912-3.6864 9.0112-5.632 14.336-5.4272 5.3248 0.2048 10.3424 2.4576 14.0288 6.3488l72.192 77.5168 136.192-138.9568c3.6864-3.7888 8.8064-5.9392 14.1312-6.0416 5.3248 0 10.4448 2.048 14.2336 5.8368 7.8848 7.8848 7.9872 20.5824 0.2048 28.5696L713.0112 825.856c-3.7888 3.8912-8.9088 6.0416-14.336 6.0416z m0 0" p-id="5347"></path><path d="M765.8496 931.2256h-507.904c-57.5488 0-104.3456-47.104-104.3456-104.96V197.3248c0-57.856 46.7968-104.96 104.3456-104.96h507.904c57.5488 0 104.3456 47.104 104.3456 104.96V576.512c0 7.3728-3.8912 14.2336-10.3424 17.8176-6.3488 3.6864-14.2336 3.6864-20.6848 0-6.3488-3.6864-10.3424-10.5472-10.3424-17.8176V197.3248c0-35.0208-28.2624-63.488-63.0784-63.488h-507.904c-34.816 0-63.0784 28.4672-63.0784 63.488v628.9408c0 35.0208 28.2624 63.488 63.0784 63.488h507.904c58.4704 0 63.0784-14.5408 63.0784-33.4848 0-7.3728 3.8912-14.2336 10.3424-17.92 6.3488-3.6864 14.2336-3.6864 20.6848 0 6.3488 3.6864 10.3424 10.5472 10.3424 17.92 0 36.9664-19.456 54.6816-35.84 63.0784-20.6848 10.4448-47.5136 11.8784-68.5056 11.8784z m0 0" p-id="5348"></path></svg>